<?xml version="1.0" encoding="UTF-8"?>
<svg id="Calque_2" data-name="Calque 2" xmlns="http://www.w3.org/2000/svg" viewBox="0 0 225 225">
  <defs>
    <style>
      .cls-1 {
        fill: #fff;
      }

      .cls-2 {
        fill: #f18888;
      }
    </style>
  </defs>
  <g id="Calque_1-2" data-name="Calque 1">
    <rect class="cls-1" width="225" height="225"/>
    <path class="cls-2" d="M161.34,156.11c-6.61,8.95-15.17,18.28-26.45,25.29-10.89,7-23.34,12.45-38.13,12.45-13.62,0-24.9-7-31.12-12.84-9.34-8.95-14.39-21.79-15.95-33.85-4.67-37.35,18.28-86.75,53.69-108.15,8.17-5.06,17.12-7.39,25.68-7.39,17.12,0,29.96,12.06,31.51,26.84,1.56,13.23-3.5,24.51-18.28,31.9-7.39,3.89-11.28,3.5-12.45,1.95-.78-1.17-.39-3.11,1.17-4.28,13.62-11.28,14.01-20.62,12.45-33.85-1.17-8.56-6.61-14.01-12.84-14.01-26.84,0-65.75,60.3-60.3,103.87,1.95,17.12,12.45,36.96,34.24,36.96,7,0,14.78-1.95,21.4-5.45,15.17-7.78,21.79-13.23,30.73-25.68,1.17-1.56,2.33-3.5,3.5-5.06.78-1.56,2.33-1.95,3.5-1.95s2.72,1.17,2.72,3.11c0,1.17-.39,3.5-1.95,5.45-.39.78-1.56,3.11-3.11,4.67h0Z"/>
  </g>
</svg>