<?xml version="1.0" encoding="UTF-8"?>
<svg id="Calque_2" data-name="Calque 2" xmlns="http://www.w3.org/2000/svg" viewBox="0 0 153.74 153.45">
  <defs>
    <style>
      .cls-1 {
        fill: #fcc23f;
      }

      .cls-2 {
        fill: #f18888;
      }
    </style>
  </defs>
  <g id="V2">
    <path class="cls-1" d="M77.56,66.98c-4.94-2.86-9.92-1.84-11.09-1.57-1.3.3-6.02,1.41-8.75,5.82-2.61,4.23-1.67,8.68-1.22,10.79.32,1.53,1.56,6.94,6.73,10.68,1.21.87,6.54,4.72,13.13,2.88,4.93-1.38,8.57-5.4,9.67-9.91,1.17-4.75-.79-8.7-2-11.13-1.01-2.03-2.64-5.33-6.48-7.56Z"/>
    <path class="cls-2" d="M46.01,13.15c2.31,4.82,5.75,4.41,11.11,9.69,2.45,2.41,5.18,5.1,6.88,9.47,1.59,4.09,1.49,7.59,4.18,8.89.13.06,1.88.87,3.44.14,2.21-1.04,2.11-4.26,3-7.61,1.35-5.09,4.41-8.34,8.53-12.72,5.84-6.21,8.96-5.83,9.31-8.8.57-4.82-6.97-11.48-14.5-12.14-6.21-.55-7,3.45-15.22,3.19-4.45-.14-6.95-1.4-11.64-.11-1.88.52-4.74,1.35-5.83,3.78-1.09,2.43.2,5.13.73,6.23Z"/>
    <path class="cls-2" d="M118.34,27.82c-2.55,8.4-1.56,9.01-3.18,13.03-2.19,5.43-6.74,11.14-7.6,12.21-1.59,1.99-3.15,3.69-2.61,4.64.56.99,2.93.41,6.28.13.96-.08,4.3.09,10.97.43,9.31.47,10.82.83,14.55.3,4.13-.58,7.03-.99,7.6-2.69.97-2.89-6.32-5.14-10.24-13.58-2.16-4.65-.71-5.61-3.28-10.92-2.2-4.53-6.52-10.57-9.39-9.79-.84.23-1.53,1.03-3.11,6.22Z"/>
    <path class="cls-2" d="M33.2,85.12c-3.14,1.08-14.84,5.12-20.42,11.81-5.06,6.07-3.57,12.51-6.22,12.77-2.43.23-5.88-4.95-6.47-10.26-.87-7.92,5.3-10.35,3.88-17.85-.7-3.72-2.5-4.62-3.04-9.79-.2-1.94-.74-7.09,1.23-8.05,2.37-1.15,5.51,5.21,13.41,10.4,10.56,6.94,21.7,6.58,21.58,8.85-.05.89-1.77,1.35-3.95,2.1Z"/>
    <path class="cls-2" d="M61.1,114.35c4.28-3.24,5.21-6.77,6.42-6.48,1.1.26,1.03,3.34,1.38,6.58,0,0,.77,7.09,3.95,13.78,4.53,9.53,12.13,9.3,13.27,17.01.18,1.23.75,5.05-1.4,7.12-3.1,2.97-8.48-.91-20.6-1.82-7.92-.59-7.5.93-13.82-.09-1.33-.21-10.15-1.75-17.62-8.44-3.56-3.19-3.47-4.56-3.33-5.1.51-2.05,4.03-1.72,9.22-4.17,5.35-2.53,8.98-6.37,10.62-8.11,3.18-3.36,3.91-5.33,7.57-7.72,2.06-1.34,2.51-1.16,4.35-2.56Z"/>
    <path class="cls-2" d="M115.16,113.89c-2.43-3.18-4.54-4.64-8.6-9.71-2.69-3.36-2.85-4.08-2.62-4.55.85-1.71,6.6.53,12.09.85,15.53.89,24.86-13.89,29.07-10.77,2.78,2.06.93,10.15-1.57,15.05-3.04,5.97-6.17,5.49-8.91,11.86-2.04,4.74-1.01,6.64-3.74,11.24-.28.47-4.36,7.25-7.08,6.47-2.06-.59-1.05-4.87-4.17-12.39-.82-1.97-2.04-4.86-4.46-8.03Z"/>
    <path class="cls-2" d="M87.87,85.91c-.55-2.24.99-3.24.21-6.6-.63-2.74-1.95-3.36-1.55-4.6.66-2.04,4.53-1.18,8.55-3.31,4.46-2.36,3.55-5.47,7.35-8.28,2.7-1.99,7.69-1.9,17.57-1.62,10.46.29,11.41,1.29,15.79.08,3.21-.88,4.89-2.02,7.86-1.55,4.74.75,7.53,4.75,7.87,5.26,3.34,4.95,2.71,11.93-.59,15.73-1.85,2.13-2.87,1.35-8.95,4.62-5.54,2.98-5.35,3.99-10.57,6.76-4.31,2.28-7.32,3.88-11.57,4.24-2.09.18-5.32-.42-11.77-1.62-4.66-.87-6.98-1.3-9.03-1.97-4.82-1.59-10.25-3.38-11.17-7.14Z"/>
    <path class="cls-2" d="M69.09,61.82c.82,1.03,2.91-.59,5.81.5.85.32,2.48.64,4.56,2.43,1.41,1.21,3,3.06,3.45,3.51,1.79,1.73,1.75,1.42,2.11,1.61,2.27,1.23,4.69.03,6.45-.92,1.64-.88,4.91-2.65,6.41-6.23,1.03-2.47.22-3.41,1.47-6.12,1-2.16,2.3-3.27,3.52-4.5,4.02-4.07,6.7-9.05,7.99-12.58,1.67-4.58.36-4.93,2.36-9.99,1.64-4.14,2.76-4.51,3.73-8.01.78-2.84,1.85-6.71-.23-10.1-2.06-3.37-6.46-4.99-9.92-4.43-1.09.18-3.31,1.65-7.77,4.6-2.92,1.93-4.83,3.31-5.66,3.92-2.41,1.76-3.67,2.68-5.19,4.02-1.29,1.13-3.34,2.95-5.39,5.63-1.25,1.63-3.99,5.29-5.51,10.58-.92,3.2-.63,4.36-2.04,6.59-1.71,2.71-2.93,2.27-4.04,4.46-1.62,3.21.66,4.87-.53,9.6-.79,3.14-2.32,4.53-1.6,5.43Z"/>
    <path class="cls-2" d="M71.04,99.53c.68-.89,2.53.53,5.67-.13,2.3-.48,4.05-1.82,4.87-2.45,2.12-1.62,1.91-2.38,3.14-2.78,1.94-.63,4,.75,6.78,2.62,2.22,1.5,3.75,2.96,5.4,4.56,2.06,2,2.06,2.28,4.6,4.76,1.48,1.45,2.72,2.56,3.96,3.67,2.94,2.63,3.24,2.73,4.21,3.66,3.2,3.06,4.68,6.47,5.88,9.23,1.09,2.53,1.57,4.5,2.53,8.45,1.71,7.07,2.57,10.6,1.77,13.02-1.42,4.29-5.44,7.18-9,8.27-3.97,1.22-7.55.25-9.5-.28-1.9-.52-1.25-.65-7.15-2.98-3.26-1.29-3.86-1.4-4.36-2.24-1.12-1.86.4-3.66-.95-6.82-.36-.83-.75-1.38-1.15-1.95-1.81-2.53-4.05-3.78-4.84-4.27-3.6-2.19-6.77-6.31-8.17-9.74-.9-2.2-1.01-5.03-1.23-10.69-.19-4.89.24-6.28-.82-9.1-.95-2.52-2.27-4.01-1.65-4.83Z"/>
    <path class="cls-2" d="M53.73,86.56c1.78,2.47,1.48,3.05,2.88,4.76,1.35,1.66,2.85,2.63,4.06,3.41,2.72,1.76,3.44,1.38,4.53,2.67,1.67,2,1.45,4.67,1.38,5.22-.29,2.66-1.97,4.34-3.31,5.69-2.21,2.22-4.8,3.32-5.83,3.75-1.91.8-2.34.62-3.47,1.41-1.63,1.14-1.98,2.38-3.28,4.42-1.58,2.46-3.22,4-4.59,5.29-1.79,1.68-3.31,2.64-6.36,4.55-3.29,2.06-4.93,3.09-7.21,3.96-1.7.65-4.62,1.73-8.41,1.76-2.87.02-2.95-.59-7.99-1.15-5.15-.57-5.22.05-7.08-.63-3.86-1.41-7.49-5.54-6.96-9.14.2-1.38,1.22-2.55,3.27-4.9,2.78-3.2,3.6-2.92,5.08-5.06,1.44-2.09,1.03-2.88,2.73-7.67,1.23-3.46,1.85-5.2,2.93-6.76,1.64-2.38,4.36-3.82,9.75-6.62,4.63-2.4,8.13-3.74,11-4.83,4.72-1.79,1.82-.35,8.75-2.61,2.08-.68,3.64-1.23,5.24-.54,1.07.46,1.68,1.31,2.9,3.01Z"/>
    <path class="cls-2" d="M49.04,77.63c2.63-.35,3.25-.57,3.85-1.07,1.36-1.12,1.04-2.32,2.66-5.5.7-1.39,1.35-2.64,2.63-3.94,1.22-1.23,2.52-2,3.47-2.57,2.18-1.29,2.53-1.01,3.49-1.87,1.56-1.4,1.96-3.35,2.21-4.57.44-2.14-.11-2.47.04-5.96.14-3.3.66-3.43.35-4.87-.53-2.48-2.2-2.8-3.94-5.35-2.37-3.47-.58-4.78-2.75-9.2-1.7-3.46-4.29-5.72-5.89-7.1-1.81-1.57-2.33-1.61-5.66-4.39-2.51-2.09-3.55-3.18-4.2-3.9-1.91-2.12-2.98-3.3-3.42-5.19-.46-1.96.27-2.52-.38-3.99-.74-1.68-2.54-2.89-4.18-3.21-4.81-.92-9.04,5.72-9.36,6.23-2.31,3.72-2.38,7.52-2.4,9.37-.03,4.25,1.27,8.9,1.8,10.79,1.01,3.61,1.78,4.94,1,5.94-.94,1.2-3.29.86-7.75.17-4.04-.62-4.5-1.18-7.27-1.28-2.26-.09-4.35-.17-6.58.96-3.02,1.53-4.36,4.3-4.8,5.26-1.75,3.76-1.01,7.38-.4,10.37.37,1.84.8,3.85,2.22,6.09.67,1.05,2.42,3.81,5.67,5.2,1.99.85,2.25.21,4.19,1.18,1.01.51,1.33.87,4.66,3.77,1.73,1.51,2.61,2.27,3.25,2.76,1.83,1.42,3.33,2.31,4.64,3.08,3.11,1.83,4.66,2.74,6.79,3.21.91.2,2.09.22,4.41.25,2.52.03,6.52.02,11.62-.67Z"/>
  </g>
</svg>
