<?xml version="1.0" encoding="UTF-8"?>
<svg id="Calque_2" data-name="Calque 2" xmlns="http://www.w3.org/2000/svg" viewBox="0 0 225 225">
  <defs>
    <style>
      .cls-1 {
        fill: #fff;
      }

      .cls-2 {
        fill: #f18888;
      }
    </style>
  </defs>
  <g id="Calque_1-2" data-name="Calque 1">
    <rect class="cls-1" width="225" height="225"/>
    <path class="cls-2" d="M115.88,121.16l-.2,45.84c-.06,14.04-10.46,25.02-23.57,26.13-14.18,1.2-26.36-9.42-27.67-22.82-1.4-14.26,8.04-27.26,23.15-28.16-12.5-2.31-22.49-11.79-23.23-24.37-.72-12.36,7.53-25.48,21.04-26.81,9.86-.97,19.99-.46,30.04-.49l.6,20.33c3.33-12.91,14.35-21.55,27.31-20.53,13.06,1.03,23.47,11.87,23.78,25.04s-9.63,24.69-22.56,26.17c-13.64,1.56-24.89-6.96-28.69-20.34Z"/>
    <path class="cls-2" d="M146.7,88.99c-4.81.42-10.02.6-14.8.73l-16.21.46-.06-51.19c9.48-.21,17.96-.35,27.1-.02,12.98.46,22.88,10.96,24.12,23.04,1.22,11.9-6.96,25.84-20.14,26.98Z"/>
    <path class="cls-2" d="M85.01,40.18c4.81-.42,10.02-.6,14.8-.73l16.21-.46.06,51.19c-9.48.21-17.96.35-27.1.02-12.98-.46-22.88-10.96-24.12-23.04-1.22-11.9,6.96-25.84,20.14-26.98Z"/>
  </g>
</svg>