<?xml version="1.0" encoding="UTF-8"?>
<svg id="Calque_2" data-name="Calque 2" xmlns="http://www.w3.org/2000/svg" viewBox="0 0 225 225">
  <defs>
    <style>
      .cls-1 {
        fill: #fff;
      }

      .cls-2 {
        fill: #f18888;
      }
    </style>
  </defs>
  <g id="Calque_1-2" data-name="Calque 1">
    <g>
      <g>
        <g>
          <path class="cls-1" d="M225,0v225H0V0h225ZM172,97c-12.53-2.02-11.03,3.29-15.83,11.67-7.95,13.9-19.53,33.2-33.48,41.52-25.89,15.44-46.09-6.05-22.16-26.16,16.34-13.73,67.98-28.24,73-48,6.36-25.05-21.53-34.57-41.04-36.02-24.55-1.81-49.05,2.26-72.49,8.99v41c23.48-16.44,58.12-32.66,87.48-29.98,19.42,1.77,22.22,13.54,4.87,22.84-30.32,16.26-103.92,20.05-105.4,66.6-.88,27.73,22.99,40.62,48.08,35.08s41.3-27.87,53.38-47.62c3.77-6.15,6.68-13.71,10.33-19.65,1.72-2.79,4.56-1.18,3.82,1.77-.8,3.18-6.46,13.03-8.39,16.63-8.3,15.45-20.01,30.15-24.17,47.33h42v-86Z"/>
          <path class="cls-1" d="M172,97v86h-42c4.17-17.18,15.87-31.88,24.17-47.33,1.94-3.6,7.59-13.45,8.39-16.63.75-2.95-2.1-4.56-3.82-1.77-3.65,5.94-6.56,13.49-10.33,19.65-12.09,19.75-29.54,42.35-53.38,47.62-25.09,5.54-48.97-7.35-48.08-35.08,1.48-46.54,75.09-50.34,105.4-66.6,17.35-9.3,14.55-21.07-4.87-22.84-29.36-2.67-64,13.55-87.48,29.98v-41c23.44-6.73,47.94-10.8,72.49-8.99,19.51,1.44,47.41,10.96,41.04,36.02-5.02,19.76-56.66,34.27-73,48-23.92,20.11-3.73,41.6,22.16,26.16,13.95-8.32,25.53-27.62,33.48-41.52,4.8-8.38,3.29-13.69,15.83-11.67Z"/>
        </g>
        <polygon class="cls-2" points="37.87 163.68 67.26 163.89 72.47 147.84 111.66 148.05 116.24 163.47 146.88 163.47 109.99 59.46 75.39 59.25 37.87 163.68"/>
        <polygon class="cls-2" points="151.68 81.76 178.98 81.76 178.98 163.68 150.84 163.68 151.68 81.76"/>
        <ellipse class="cls-2" cx="165.23" cy="67.17" rx="15.01" ry="13.34"/>
      </g>
      <polygon class="cls-1" points="91.65 88.85 80.81 122.2 102.9 121.99 91.65 88.85"/>
    </g>
  </g>
</svg>