<?xml version="1.0" encoding="UTF-8"?>
<svg id="Calque_2" data-name="Calque 2" xmlns="http://www.w3.org/2000/svg" viewBox="0 0 225 225">
  <defs>
    <style>
      .cls-1 {
        fill: #fff;
      }

      .cls-2 {
        fill: #f18888;
      }
    </style>
  </defs>
  <g id="Calque_1-2" data-name="Calque 1">
    <rect class="cls-1" width="225" height="225"/>
    <path class="cls-2" d="M70.88,59.18c3.64-.16,7.45.31,10.96,1.27,12.89,3.52,22.47,13.7,30.55,23.77.12.03.17-.08.24-.15.48-.45,1.25-1.76,1.72-2.38,11.02-14.39,25.3-26.95,44.85-20.98,23.53,7.19,35.44,35.9,39.32,58.11,4.45,25.46.88,62.58-33.56,59.6-17.1-1.48-28.04-18.6-36.27-31.9-6.34-10.25-12.27-20.76-18.63-31-5.08,8.84-9.98,17.8-15.15,26.59-4.84,8.23-10.14,16.81-16.54,23.93-8.42,9.36-17.11,13.78-30.02,12.27-23.47-2.74-29.41-26.06-28.35-46.26,1.48-28.09,17.56-71.41,50.89-72.86ZM146.75,75.86c-9.99.66-17.2,8.71-22.59,16.32-.36.51-2.87,4.1-2.83,4.35,9.05,13.49,16.88,27.76,25.68,41.41,3.62,5.61,10.51,16.87,16.32,19.86,5.76,2.96,12.98.65,16.27-4.8,4.39-7.27,3.49-19.86,2.54-28.05-2.13-18.39-11.78-50.64-35.41-49.08ZM70.69,78.79c-13.88.98-23.01,19.11-26.73,30.71-3.09,9.66-5.04,21.87-4.36,32.01.67,10.02,5.45,19.57,17.18,17.18,7.6-1.55,14.65-12.34,18.82-18.43,8.72-12.74,16.54-26.09,25.19-38.88-3.91-5.62-8.11-11.15-13.17-15.81-4.65-4.28-10.43-7.26-16.94-6.79Z"/>
  </g>
</svg>