<?xml version="1.0" encoding="UTF-8"?>
<svg id="Calque_2" data-name="Calque 2" xmlns="http://www.w3.org/2000/svg" viewBox="0 0 225 225">
  <defs>
    <style>
      .cls-1 {
        fill: #fefefe;
      }

      .cls-2 {
        fill: #fff;
      }

      .cls-3 {
        fill: #f18888;
      }
    </style>
  </defs>
  <g id="Calque_1-2" data-name="Calque 1">
    <rect class="cls-2" width="225" height="225"/>
    <g>
      <path class="cls-3" d="M127.07,33.8l-.08,16.86h71.31c3.3,0,6.08,2,7.08,5.05.09.27.14.38.38.36v128.12s-.27-.06-.32.08c-1,2.97-3.68,5.17-6.97,5.17h-71.5s-.06,17.03-.06,17.03h-.73c.02-.07,0-.2-.05-.24-.07-.06-.14-.08-.4-.12l-102.74-17.07V50.93c.43.06.73,0,1.31-.1l100.48-16.67c.25-.04.33-.07.4-.12.05-.04.07-.17.07-.24h1.81ZM126.97,127.93v6.17s24.51,0,24.51,0l-.02,15.72h-24.49s0,6.06,0,6.06h24.5s0,15.76,0,15.76h-24.51s0,11.64,0,11.64h72.81s.02-126.47.02-126.47l-72.83-.03.02,12.18h24.5s0,15.7,0,15.7h-24.5s0,5.68,0,5.68h24.5s0,15.77,0,15.77h-24.5s0,6.09,0,6.09h24.5s0,15.72,0,15.72h-24.51ZM62.28,149.63l8.64-20.1.36-1.4,1.21,3.18,8.09,19.42,14.14.82-15.95-31.48,15.32-30.64-13.12.77-8.15,18.88c-.53,1.06-.74,2-1.13,3.25-.26-.9-.46-1.7-.88-2.62l-7.13-18.5-12.14.75,12.61,28.51-14.02,28.44,12.15.71Z"/>
      <path class="cls-1" d="M126.97,127.93h24.51s0-15.71,0-15.71h-24.5s0-6.11,0-6.11h24.5s0-15.76,0-15.76h-24.5s0-5.68,0-5.68h24.5s0-15.68,0-15.68h-24.5s-.02-12.19-.02-12.19l72.83.03-.02,126.47h-72.81s0-11.65,0-11.65h24.51s0-15.74,0-15.74h-24.5s0-6.07,0-6.07h24.49s.02-15.71.02-15.71h-24.51s0-6.18,0-6.18ZM186.8,84.66v-15.74s-29.15,0-29.15,0v15.74s29.15-.01,29.15-.01ZM186.8,106.15v-15.73s-29.15,0-29.15,0v15.75s29.15-.01,29.15-.01ZM186.8,127.92v-15.7s-29.15,0-29.15,0v15.72s29.15-.02,29.15-.02ZM186.8,149.96v-15.69s-29.15.01-29.15.01v15.69s29.15-.01,29.15-.01ZM186.8,171.63v-15.75s-29.15,0-29.15,0v15.75s29.15,0,29.15,0Z"/>
      <path class="cls-1" d="M62.28,149.63l-12.15-.71,14.02-28.44-12.61-28.51,12.14-.75,7.13,18.5c.42.92.62,1.72.88,2.62.39-1.25.6-2.2,1.13-3.25l8.15-18.88,13.12-.77-15.32,30.64,15.95,31.48-14.14-.82-8.09-19.42-1.21-3.18-.36,1.4-8.64,20.1Z"/>
      <polygon class="cls-3" points="186.8 84.66 157.66 84.67 157.65 68.93 186.8 68.92 186.8 84.66"/>
      <polygon class="cls-3" points="186.8 106.15 157.65 106.16 157.65 90.41 186.79 90.41 186.8 106.15"/>
      <polygon class="cls-3" points="186.8 171.63 157.65 171.64 157.65 155.89 186.79 155.88 186.8 171.63"/>
      <polygon class="cls-3" points="186.8 127.92 157.66 127.93 157.65 112.22 186.79 112.21 186.8 127.92"/>
      <rect class="cls-3" x="157.65" y="134.27" width="29.15" height="15.69"/>
    </g>
  </g>
</svg>