<?xml version="1.0" encoding="UTF-8"?>
<svg id="Calque_2" data-name="Calque 2" xmlns="http://www.w3.org/2000/svg" viewBox="0 0 225 225">
  <defs>
    <style>
      .cls-1 {
        fill: #fff;
      }

      .cls-2 {
        fill: #f18888;
      }
    </style>
  </defs>
  <g id="Calque_1-2" data-name="Calque 1">
    <rect class="cls-1" width="225" height="225"/>
    <path class="cls-2" d="M114.64,203.3h-1.22s-52.4-14.76-52.4-14.76l-11.79-132.77h130.01s-11.83,132.77-11.83,132.77l-52.76,14.76ZM80.74,165.93l33.56,9.27,33.28-9.28,4.5-50.13-59.38.05-1.38-16.58h62.24s1.48-16.45,1.48-16.45l-81.77.04,4.46,49.28,56.49.08-1.96,21.12-18.31,4.77-17.93-4.85-1.07-12.93-16.47-.03,2.27,25.64Z"/>
    <polygon class="cls-2" points="124.44 19.64 129.45 28.54 134.56 19.64 143.21 19.64 143.31 44.21 135.17 44.35 135.03 32.37 129.37 40.87 123.74 32.42 123.57 44.32 115.45 44.27 115.78 19.64 124.44 19.64"/>
    <polygon class="cls-2" points="69.74 19.64 69.44 27.87 77.1 27.89 77.09 19.64 85.6 19.64 85.35 44.21 77.09 44.35 77.1 36.06 69.63 36.05 69.63 44.3 61.35 44.26 61.88 19.64 69.74 19.64"/>
    <polygon class="cls-2" points="112.19 19.64 111.78 27.82 104.48 27.85 104.48 44.33 96.41 44.26 96.43 27.84 89.09 27.83 89.66 19.64 112.19 19.64"/>
    <polygon class="cls-2" points="155.83 19.64 155.65 36.22 167.37 36.33 167.34 44.34 147.56 44.29 147.62 19.65 155.83 19.64"/>
  </g>
</svg>