<?xml version="1.0" encoding="UTF-8"?>
<svg id="Calque_2" data-name="Calque 2" xmlns="http://www.w3.org/2000/svg" viewBox="0 0 224.38 224.71">
  <defs>
    <style>
      .cls-1 {
        fill: #fff;
      }

      .cls-2 {
        fill: #f18888;
      }
    </style>
  </defs>
  <g id="Calque_1-2" data-name="Calque 1">
    <g>
      <path class="cls-1" d="M224.38,0v224.71H0V0h224.38ZM121.65,139.34h-43.82V58.4c0-.6-.81-.79-1.28-.84-5.7-.63-12.44.48-18.25-.01-.69-.02-1.04.53-1.22,1.14l.13,99.05.52.66,60.84.07c.54-.17.68-.85.8-1.34.99-3.95,2.29-11.97,2.6-16.03.05-.6.22-1.35-.32-1.77ZM149.94,82.02h-17.76c-.5.39-.38,1.19-.36,1.81.12,3.43.37,6.85.47,10.31.61,21.05.06,42.22.23,63.32.03.8.72,1.41,1.52,1.32,5.74-.43,12.13.52,17.79,0,.52-.05,1.02-.06,1.39-.49l.16-49.72c2.2-2.74,5.86-4.27,9.12-5.27,3.58-1.1,7.78-1.75,11.51-1.88,1.08-.04,2.16.55,3.34-.03l.22-.6-.06-19.73c-.43-1.01-2.32-.77-3.26-.72-8.32.41-16.19,5.16-21.51,11.51-.53.1-.32-.24-.35-.59-.12-1.75-.55-8.69-2.45-9.24Z"/>
      <path class="cls-2" d="M121.65,139.34c.54.42.37,1.17.32,1.77-.31,4.06-1.61,12.09-2.6,16.03-.12.49-.26,1.17-.8,1.34l-60.84-.07-.52-.66-.13-99.05c.19-.61.54-1.16,1.22-1.14,5.81.49,12.55-.62,18.25.01.47.05,1.28.24,1.28.84v80.94h43.82Z"/>
      <path class="cls-2" d="M149.94,82.02c1.9.55,2.33,7.48,2.45,9.24.02.36-.18.69.35.59,5.32-6.34,13.18-11.1,21.51-11.51.95-.05,2.83-.29,3.26.72l.06,19.73-.22.6c-1.18.58-2.26,0-3.34.03-3.74.12-7.93.78-11.51,1.88-3.26,1-6.93,2.53-9.12,5.27l-.16,49.72c-.38.43-.87.44-1.39.49-5.66.52-12.05-.42-17.79,0-.79.08-1.49-.52-1.52-1.32-.17-21.09.38-42.26-.23-63.32-.1-3.46-.35-6.88-.47-10.31-.02-.62-.14-1.42.36-1.81h17.76Z"/>
    </g>
  </g>
</svg>