<?xml version="1.0" encoding="UTF-8"?>
<svg id="Calque_2" data-name="Calque 2" xmlns="http://www.w3.org/2000/svg" viewBox="0 0 225 225">
  <defs>
    <style>
      .cls-1 {
        fill: #fff;
      }

      .cls-2 {
        fill: #f18888;
      }
    </style>
  </defs>
  <g id="Calque_1-2" data-name="Calque 1">
    <rect class="cls-1" width="225" height="225"/>
    <g>
      <path class="cls-2" d="M134.57,77.56h24.32l-29.85-29.85v24.32c.01,3.05,2.48,5.52,5.53,5.53Z"/>
      <path class="cls-2" d="M163.38,83.88h-28.81c-6.54-.01-11.84-5.32-11.85-11.85v-28.79H54.73c-3.06,0-5.53,2.48-5.53,5.54v124.87c0,3.05,2.48,5.53,5.53,5.53h103.1c3.05-.01,5.51-2.48,5.53-5.53h.02v-89.76Z"/>
      <path class="cls-1" d="M73.5,88.93h0c-1.75,0-3.16-1.41-3.16-3.16s1.41-3.16,3.16-3.16h34.38c1.75,0,3.16,1.41,3.16,3.16s-1.41,3.16-3.16,3.16h-34.39Z"/>
      <path class="cls-1" d="M73.5,133.81h0c-1.75,0-3.16-1.41-3.16-3.16s1.41-3.16,3.16-3.16h65.4c1.75,0,3.16,1.41,3.16,3.16s-1.41,3.16-3.16,3.16h-65.41Z"/>
      <path class="cls-1" d="M73.5,156.26h0c-1.75,0-3.16-1.41-3.16-3.16s1.41-3.16,3.16-3.16h44.47c1.75,0,3.16,1.42,3.16,3.16s-1.41,3.16-3.16,3.16h-44.47Z"/>
      <path class="cls-1" d="M73.5,111.37h0c-1.75,0-3.16-1.41-3.16-3.16s1.41-3.16,3.16-3.16h65.4c1.75,0,3.16,1.41,3.16,3.16s-1.41,3.16-3.16,3.16h-65.41Z"/>
    </g>
  </g>
</svg>