<?xml version="1.0" encoding="UTF-8"?>
<svg id="Calque_2" data-name="Calque 2" xmlns="http://www.w3.org/2000/svg" viewBox="0 0 225 225">
  <defs>
    <style>
      .cls-1 {
        fill: #fff;
      }

      .cls-2 {
        fill: #f18888;
      }
    </style>
  </defs>
  <g id="Calque_1-2" data-name="Calque 1">
    <g>
      <path class="cls-1" d="M225,0v225H0V0h225ZM108.15,9.06C59.85,11.03,18.86,46.92,10.56,94.47-1.44,163.25,56.31,223.74,125.51,215.23c45.52-5.6,82.58-41.77,89.34-87.1C224.46,63.66,173.25,6.4,108.15,9.06Z"/>
      <path class="cls-2" d="M108.15,9.06c65.11-2.66,116.31,54.61,106.69,119.07-6.76,45.33-43.81,81.5-89.34,87.1C56.31,223.74-1.44,163.25,10.56,94.47,18.86,46.92,59.85,11.03,108.15,9.06ZM108.52,18.06C35.82,21.05-6.59,102.42,33.11,163.86c37.52,58.07,123.28,57.26,159.72-1.5C232.85,97.82,184.05,14.94,108.52,18.06Z"/>
      <path class="cls-1" d="M108.52,18.06c75.53-3.11,124.32,79.76,84.3,144.3-36.43,58.76-122.2,59.57-159.72,1.5C-6.59,102.42,35.82,21.05,108.52,18.06ZM123.1,104.36c14.39-14.5,30.07-37.58,14.24-56.92-12.46-15.23-37.39-15.19-49.78.1-16.77,20.71,2.38,46.18,18.18,60.56,2.35,2.14,5.4,5.67,8.8,3.92,2.05-1.06,6.74-5.82,8.56-7.65ZM68.02,112.56c-12.74.67-23.97,5.54-29.37,17.69-10.33,23.23,10.43,49.61,35.45,44.64,19.55-3.88,29.93-30.36,33.25-47.75.7-3.69,1.58-6.51-2.63-8.26-9.84-4.1-26.09-6.87-36.7-6.32ZM136.38,167c23.78,22.98,61.39-4.05,50.94-34.34-8.91-25.82-41.82-21.77-62.54-15.28-3.54,1.11-8.22,1.84-7.73,6.61.29,2.78,1.34,6.61,2.06,9.37,2.97,11.31,8.75,25.41,17.26,33.64Z"/>
      <path class="cls-2" d="M136.38,167c-8.51-8.23-14.29-22.33-17.26-33.64-.73-2.77-1.77-6.59-2.06-9.37-.5-4.77,4.18-5.5,7.73-6.61,20.72-6.49,53.63-10.54,62.54,15.28,10.45,30.29-27.16,57.33-50.94,34.34Z"/>
      <path class="cls-2" d="M68.02,112.56c10.61-.56,26.86,2.22,36.7,6.32,4.2,1.75,3.33,4.57,2.63,8.26-3.32,17.39-13.7,43.87-33.25,47.75-25.02,4.97-45.77-21.41-35.45-44.64,5.4-12.15,16.63-17.02,29.37-17.69Z"/>
      <path class="cls-2" d="M123.1,104.36c-1.82,1.83-6.51,6.6-8.56,7.65-3.4,1.75-6.44-1.77-8.8-3.92-15.8-14.38-34.95-39.85-18.18-60.56,12.39-15.3,37.32-15.33,49.78-.1,15.83,19.35.14,42.43-14.24,56.92Z"/>
    </g>
  </g>
</svg>