<?xml version="1.0" encoding="UTF-8"?>
<svg id="Calque_2" data-name="Calque 2" xmlns="http://www.w3.org/2000/svg" viewBox="0 0 225 225">
  <defs>
    <style>
      .cls-1 {
        fill: #fff;
      }

      .cls-2 {
        fill: #f18888;
      }
    </style>
  </defs>
  <g id="Calque_1-2" data-name="Calque 1">
    <rect class="cls-1" width="225" height="225"/>
    <g>
      <path class="cls-2" d="M161.96,187.36l-51.5,14.91-51.41-14.65-11.42-130.34,125.68.02-11.35,130.06ZM110.06,157.27l-17.07-4.29-1.24-12.58h-15.8s2.35,25.28,2.35,25.28l32.17,8.91,32.36-9.21,7.12-81.52-78.92.03,1.33,16.08,60.04-.08-1.46,16.33h-57.17s1.34,16.11,1.34,16.11l54.23.02c.11,7.38-.6,13.64-1.76,21.11l-17.51,3.8Z"/>
      <path class="cls-2" d="M142.11,46.56c-6.9-.06-12.48-.21-18.99.17l-.13-7.45c3.54-.03,7.12.76,11.46-.51-3.72-1.44-7.49-.93-11.47-.99v-15.89s19.02-.01,19.02-.01l.15,6.85c-3.8.01-6.72-.69-10.69.48,3.3,1.48,6.55,1.28,10.64,1.06v16.29Z"/>
      <path class="cls-2" d="M118.94,46.32l-18.95.1-.04-6.94,9.85-.09c.48-.28.67-.73.7-.87-3.21-.97-6.45-.74-10.51-.87l-.07-15.75,18.83.05c.4,2.27.37,4.38.04,6.48l-10.99.56.07,2.08,10.81-.2.26,15.45Z"/>
      <path class="cls-2" d="M85.25,37.96l10.67.06c.46,3.01.48,5.12-.03,8.2l-18.62-.04v-24.26s18.65-.03,18.65-.03c.48,2.95.47,5.12,0,8.14h-10.58s-.08,7.92-.08,7.92Z"/>
      <path class="cls-1" d="M110.06,157.27l17.51-3.8c1.16-7.47,1.87-13.73,1.76-21.11l-54.23-.02-1.34-16.13h57.17s1.46-16.31,1.46-16.31l-60.04.08-1.33-16.08,78.92-.03-7.12,81.52-32.36,9.21-32.17-8.91-2.35-25.28h15.8s1.24,12.58,1.24,12.58l17.07,4.29Z"/>
    </g>
  </g>
</svg>