<?xml version="1.0" encoding="UTF-8"?>
<svg id="Calque_2" data-name="Calque 2" xmlns="http://www.w3.org/2000/svg" viewBox="0 0 224.82 223.94">
  <defs>
    <style>
      .cls-1 {
        fill: #fff;
      }

      .cls-2 {
        fill: #f18888;
      }
    </style>
  </defs>
  <g id="Calque_1-2" data-name="Calque 1">
    <g>
      <path class="cls-1" d="M224.82,0v223.94H0V0h224.82ZM73.77,157.07v-30.98c15.55.41,32.52.31,43.32-12.81,10.46-12.7,9.34-35.63-2.93-46.76-13.13-11.91-31.74-9.78-47.99-9.33-4.18.12-8.34,0-12.51.26l-.28,1.51.07,98.3c.09.75.58.81,1.23.88,5.42.59,11.81-.45,17.34.01.67.09,1.6-.41,1.75-1.09ZM154.68,81.59h-17.33s-.41.37-.46.48c-.35.75.32,4.68.36,5.85.1,3.01.18,6.11.23,9.09.38,20.15-.34,40.34.04,60.49l.42.53,20.28-.1.34-.85.09-48.95c4.61-5,13.11-6.73,19.67-7.17.91-.06,3.75.26,4.23-.22.31-.31.32-.89.36-1.31.5-5.71-.4-12.17,0-17.96-.2-1.79-1.23-1.61-2.71-1.56-6.88.26-14.19,3.69-19.31,8.26-.63.56-3.12,3.46-3.62,3.47-.19-1.89-.33-9.56-2.58-10.05Z"/>
      <path class="cls-2" d="M73.77,157.07c-.14.68-1.08,1.18-1.75,1.09-5.53-.46-11.92.58-17.34-.01-.64-.07-1.14-.14-1.23-.88l-.07-98.3.28-1.51c4.17-.26,8.33-.15,12.51-.26,16.25-.45,34.86-2.58,47.99,9.33,12.27,11.13,13.39,34.06,2.93,46.76-10.8,13.12-27.77,13.22-43.32,12.81v30.98ZM73.77,108.14c8.88.56,23.83.71,28.5-8.8,2.41-4.9,2.06-12.81-1.24-17.26-5.98-8.04-18.59-6.37-27.26-6.24v32.3Z"/>
      <path class="cls-2" d="M154.68,81.59c2.25.49,2.39,8.16,2.58,10.05.51-.01,3-2.91,3.62-3.47,5.12-4.57,12.43-8,19.31-8.26,1.48-.06,2.5-.23,2.71,1.56-.39,5.79.51,12.25,0,17.96-.04.42-.05,1-.36,1.31-.48.48-3.32.16-4.23.22-6.56.45-15.06,2.17-19.67,7.17l-.09,48.95-.34.85-20.28.1-.42-.53c-.38-20.15.34-40.34-.04-60.49-.06-2.98-.14-6.08-.23-9.09-.04-1.17-.7-5.1-.36-5.85.05-.11.42-.48.46-.48h17.33Z"/>
      <path class="cls-1" d="M73.77,108.14v-32.3c8.68-.13,21.28-1.8,27.26,6.24,3.3,4.44,3.65,12.36,1.24,17.26-4.67,9.51-19.63,9.36-28.5,8.8Z"/>
    </g>
  </g>
</svg>