<?xml version="1.0" encoding="UTF-8"?>
<svg id="Calque_2" data-name="Calque 2" xmlns="http://www.w3.org/2000/svg" viewBox="0 0 225 225">
  <defs>
    <style>
      .cls-1 {
        fill: #fff;
      }

      .cls-2 {
        fill: #f18888;
      }
    </style>
  </defs>
  <g id="Calque_1-2" data-name="Calque 1">
    <g>
      <path class="cls-1" d="M152.49,0c3.13.78,6.29,1.16,9.34,2.3,2.51.94,5.47,2.68,7.76,4.11,14.69,9.16,28.78,20.94,43.31,30.5,5.28,4.52,8.1,8.85,8.6,16v138.82c-.87,14.19-9.06,23.14-23.14,25.18l-128.05,7.96c-4.08-.32-8.75.43-12.74,0-6.91-.74-13.32-5.02-17.8-10.1-10.42-16.96-34.99-36.74-36.27-57.3.46-42.96-.83-86.08.66-128.94,2.27-10.58,10.54-18.03,21.17-19.69C64.33,6.95,103.51,1.78,142.38,0h10.11ZM142.73,13.3c-37.69,1.59-75.34,6.65-113.06,8.22-7.67.93-12.1,3.95-12.99,12.06l.13,125.07c.74,4.18,2.52,7.54,4.8,11.01,8.81,13.37,20.99,26.35,30.72,39.13,5.45,4.36,12.73,2.7,19.08,2.46,19.51-.75,39.01-2.35,58.45-3.51,20.8-1.25,43.16-1.33,63.71-3.52,8.92-.95,14.06-3.12,14.75-12.93l-.43-140.15c-.76-2.4-3.67-4.32-5.6-5.82-12.95-10.05-27.75-18.62-40.87-28.54-6.72-3.86-11.1-3.79-18.68-3.47Z"/>
      <path class="cls-1" d="M152.49,0h72.51v224.86H70.31l128.05-7.96c14.08-2.04,22.27-10.99,23.14-25.18V52.9c-.5-7.15-3.32-11.48-8.6-16-14.53-9.56-28.62-21.34-43.31-30.5-2.29-1.43-5.25-3.17-7.76-4.11-3.05-1.14-6.21-1.52-9.34-2.3Z"/>
      <path class="cls-1" d="M142.38,0C103.51,1.78,64.33,6.95,25.32,8.84c-10.63,1.66-18.9,9.11-21.17,19.69-1.49,42.86-.19,85.99-.66,128.94,1.28,20.55,25.85,40.34,36.27,57.3,4.48,5.08,10.89,9.35,17.8,10.1H0V0h142.38Z"/>
      <path class="cls-2" d="M142.73,13.3c7.58-.32,11.96-.39,18.68,3.47,13.13,9.92,27.93,18.49,40.87,28.54,1.93,1.5,4.84,3.42,5.6,5.82l.43,140.15c-.68,9.81-5.82,11.98-14.75,12.93-20.55,2.2-42.91,2.28-63.71,3.52-19.44,1.17-38.94,2.76-58.45,3.51-6.35.24-13.63,1.9-19.08-2.46-9.73-12.78-21.91-25.76-30.72-39.13-2.29-3.47-4.07-6.83-4.8-11.01l-.13-125.07c.89-8.1,5.31-11.12,12.99-12.06,37.72-1.58,75.37-6.64,113.06-8.22ZM145.82,24.27l-107.81,7.79c-2.35.34-5.7,1.49-3.25,4.14,2.12,2.28,17.51,14.13,20.06,15.09,3.42,1.29,7.25,1.09,10.88.97,10.25-.32,20.92-1.6,31.21-2.19,26.34-1.5,52.79-2.49,79.09-4.4,1.12-.08,5.65-.22,4.85-1.76-6.77-5.05-13.66-10.72-20.74-15.28-4.87-3.14-8.31-4.38-14.28-4.36ZM185.8,58.54c-23.04.72-46.24,2.9-69.13,4.26-16.85,1-34.28,1.11-50.97,2.64-6.29.58-8.91.58-9.47,7.67v115.54c.56,7.57,4.48,8.24,11.22,8.1,15.68-.32,32.15-2.18,47.91-3.07,22.22-1.25,44.63-1.82,66.79-3.52,7.13-.55,12.31.08,12.98-8.54l-.02-117.27c-.84-6.46-4-5.97-9.31-5.8Z"/>
      <path class="cls-1" d="M185.8,58.54c5.32-.16,8.48-.65,9.31,5.8l.02,117.27c-.68,8.62-5.86,8-12.98,8.54-22.16,1.71-44.56,2.27-66.79,3.52-15.76.89-32.23,2.75-47.91,3.07-6.74.14-10.66-.53-11.22-8.1v-115.54c.56-7.08,3.18-7.09,9.47-7.67,16.69-1.54,34.12-1.64,50.97-2.64,22.89-1.36,46.09-3.54,69.13-4.26ZM152.49,90.03v52.7l-39.56-59.54c-10.43.85-21.06.79-31.37,2.48-2.9,1.16-4.84,5.37-3.71,8.24l9.63,1.21v75.42c-4.61,2.06-10.82,1.19-10.14,8.2,2.88.36,5.84-.3,8.58-.44,6.42-.31,13.43-.25,19.76-.89,4.22-.43,8.26-2.24,8.57-7l-11.85-2.65v-57.09l40.2,61.93c5.09,6.62,13.16,5.45,19.99,2.4,1.39-.62,4.02-1.4,3.99-3.03l-.03-83.03c.29-1.52,4.33-1.5,5.91-2,4.13-1.3,3.27-3.57,3.32-7.44l-28.88,2.09c-2.94,1.16-4.93,3.95-4.32,7.16l9.92,1.29Z"/>
      <path class="cls-1" d="M145.82,24.27c5.97-.02,9.41,1.22,14.28,4.36,7.08,4.56,13.98,10.23,20.74,15.28.8,1.54-3.72,1.68-4.85,1.76-26.31,1.91-52.75,2.9-79.09,4.4-10.29.59-20.96,1.87-31.21,2.19-3.63.11-7.46.32-10.88-.97-2.54-.96-17.94-12.81-20.06-15.09-2.45-2.64.91-3.8,3.25-4.14l107.81-7.79Z"/>
      <path class="cls-2" d="M152.49,90.03l-9.92-1.29c-.61-3.21,1.39-6,4.32-7.16l28.88-2.09c-.05,3.87.81,6.14-3.32,7.44-1.58.5-5.62.48-5.91,2l.03,83.03c.02,1.64-2.61,2.42-3.99,3.03-6.82,3.05-14.89,4.22-19.99-2.4l-40.2-61.93v57.09l11.85,2.65c-.3,4.77-4.34,6.57-8.57,7-6.33.64-13.35.58-19.76.89-2.74.13-5.69.79-8.58.44-.69-7,5.53-6.14,10.13-8.2v-75.42s-9.62-1.21-9.62-1.21c-1.13-2.87.81-7.08,3.71-8.24,10.31-1.7,20.94-1.63,31.37-2.48l39.56,59.54v-52.7Z"/>
    </g>
  </g>
</svg>