<?xml version="1.0" encoding="UTF-8"?>
<svg id="Calque_2" data-name="Calque 2" xmlns="http://www.w3.org/2000/svg" viewBox="0 0 224.53 225.08">
  <defs>
    <style>
      .cls-1 {
        fill: #fff;
      }

      .cls-2 {
        fill: #f18888;
      }
    </style>
  </defs>
  <g id="Calque_1-2" data-name="Calque 1">
    <g>
      <path class="cls-1" d="M224.53,0v225.08H0V0h224.53ZM70.87,126.73c15.05.91,32.15.34,42.81-12.14,10.99-12.87,9.94-36.35-2.7-47.73-13.3-11.98-32.52-9.58-48.87-9.13-3.78.1-7.55-.07-11.32.26l-.28,1.28.02,98.84.46.73h19.41c.11-.07.47-.65.47-.72v-31.38ZM181.19,84.47c-.6-.6-5.39-1.89-6.48-2.12-15.5-3.25-38.48-1.61-42.69,17.68-3.16,14.47,6.22,22.78,17.81,28.1,3.69,1.7,12.62,4.33,14.78,7.65,1.89,2.91.33,5.75-2.59,6.88-6.28,2.43-17.83.15-24.03-2.35-.93-.38-5.84-3.08-6.16-2.98-.44.13-.58.88-.63,1.3-.41,3.61-.34,12.43,0,16.13.2,2.21,2.63,2.77,4.4,3.41,15.71,5.74,45.63,4.74,49.53-16.52,2.73-14.88-5.61-21.99-17.51-27.46-4.02-1.85-14.38-4.97-16.34-8.93-1.35-2.71.47-5.5,3.08-6.31,6.24-1.93,16.89.21,22.92,2.66,1.13.46,4.16,2.68,4.46.24-.36-5.04.44-10.68,0-15.65-.04-.5-.2-1.38-.54-1.72Z"/>
      <path class="cls-2" d="M70.87,126.73v31.38c0,.07-.36.66-.47.72h-19.41s-.46-.73-.46-.73l-.02-98.84.28-1.28c3.77-.33,7.54-.16,11.32-.26,16.35-.45,35.56-2.84,48.87,9.13,12.64,11.38,13.7,34.86,2.7,47.73-10.65,12.47-27.76,13.05-42.81,12.14ZM70.87,108.69c10.61,1.05,28.79.39,29.93-14.07.71-8.97-2.75-15.07-11.28-17.49-.93-.26-3.21-.9-4.04-.9h-14.62v32.46Z"/>
      <path class="cls-2" d="M181.19,84.47c.34.34.5,1.22.54,1.72.44,4.97-.36,10.61,0,15.65-.31,2.44-3.34.21-4.46-.24-6.03-2.44-16.68-4.59-22.92-2.66-2.62.81-4.43,3.59-3.08,6.31,1.97,3.96,12.32,7.08,16.34,8.93,11.9,5.47,20.24,12.58,17.51,27.46-3.91,21.26-33.82,22.26-49.53,16.52-1.76-.64-4.2-1.21-4.4-3.41-.33-3.7-.4-12.52,0-16.13.05-.41.19-1.17.63-1.3.33-.1,5.23,2.61,6.16,2.98,6.2,2.5,17.75,4.78,24.03,2.35,2.91-1.13,4.48-3.96,2.59-6.88-2.16-3.32-11.08-5.95-14.78-7.65-11.59-5.33-20.97-13.63-17.81-28.1,4.21-19.29,27.19-20.93,42.69-17.68,1.08.23,5.88,1.52,6.48,2.12Z"/>
      <path class="cls-1" d="M70.87,108.69v-32.46h14.62c.83,0,3.11.64,4.04.9,8.53,2.42,11.99,8.52,11.28,17.49-1.15,14.46-19.32,15.12-29.93,14.07Z"/>
    </g>
  </g>
</svg>